<?xml version="1.0" encoding="UTF-8" standalone="no"?>
<!DOCTYPE svg PUBLIC "-//W3C//DTD SVG 1.1//EN"
 "http://www.w3.org/Graphics/SVG/1.1/DTD/svg11.dtd">
<!-- Generated by graphviz version 2.36.0 (20140111.2315)
 -->
<!-- Title: controllers_diagram Pages: 1 -->
<svg width="586pt" height="596pt"
 viewBox="0.00 0.00 586.00 596.00" xmlns="http://www.w3.org/2000/svg" xmlns:xlink="http://www.w3.org/1999/xlink">
<g id="graph0" class="graph" transform="scale(1 1) rotate(0) translate(4 592)">
<title>controllers_diagram</title>
<polygon fill="none" stroke="none" points="-4,4 -4,-592 582,-592 582,4 -4,4"/>
<!-- _diagram_info -->
<g id="node1" class="node"><title>_diagram_info</title>
<text text-anchor="start" x="297" y="-63.6" font-family="Times,serif" font-size="13.00">Controllers diagram</text>
<text text-anchor="start" x="297" y="-49.6" font-family="Times,serif" font-size="13.00">Date: Aug 20 2016 &#45; 00:33</text>
<text text-anchor="start" x="297" y="-35.6" font-family="Times,serif" font-size="13.00">Migration version: 20160819232825</text>
<text text-anchor="start" x="297" y="-21.6" font-family="Times,serif" font-size="13.00">Generated by RailRoady 1.5.1</text>
<text text-anchor="start" x="297" y="-7.6" font-family="Times,serif" font-size="13.00">http://railroady.prestonlee.com</text>
</g>
<!-- LeaguesController -->
<g id="node2" class="node"><title>LeaguesController</title>
<path fill="none" stroke="black" d="M301,-119.5C301,-119.5 394,-119.5 394,-119.5 400,-119.5 406,-125.5 406,-131.5 406,-131.5 406,-320.5 406,-320.5 406,-326.5 400,-332.5 394,-332.5 394,-332.5 301,-332.5 301,-332.5 295,-332.5 289,-326.5 289,-320.5 289,-320.5 289,-131.5 289,-131.5 289,-125.5 295,-119.5 301,-119.5"/>
<text text-anchor="middle" x="347.5" y="-317.3" font-family="Times,serif" font-size="14.00">LeaguesController</text>
<polyline fill="none" stroke="black" points="289,-309.5 406,-309.5 "/>
<text text-anchor="start" x="297" y="-294.3" font-family="Times,serif" font-size="14.00">create</text>
<text text-anchor="start" x="297" y="-279.3" font-family="Times,serif" font-size="14.00">destroy</text>
<text text-anchor="start" x="297" y="-264.3" font-family="Times,serif" font-size="14.00">edit</text>
<text text-anchor="start" x="297" y="-249.3" font-family="Times,serif" font-size="14.00">index</text>
<text text-anchor="start" x="297" y="-234.3" font-family="Times,serif" font-size="14.00">new</text>
<text text-anchor="start" x="297" y="-219.3" font-family="Times,serif" font-size="14.00">show</text>
<text text-anchor="start" x="297" y="-204.3" font-family="Times,serif" font-size="14.00">update</text>
<polyline fill="none" stroke="black" points="289,-196.5 406,-196.5 "/>
<polyline fill="none" stroke="black" points="289,-172.5 406,-172.5 "/>
<text text-anchor="start" x="297" y="-157.3" font-family="Times,serif" font-size="14.00">_layout</text>
<text text-anchor="start" x="297" y="-142.3" font-family="Times,serif" font-size="14.00">league_params</text>
<text text-anchor="start" x="297" y="-127.3" font-family="Times,serif" font-size="14.00">set_league</text>
</g>
<!-- HomeController -->
<g id="node3" class="node"><title>HomeController</title>
<path fill="none" stroke="black" d="M12,-408.5C12,-408.5 94,-408.5 94,-408.5 100,-408.5 106,-414.5 106,-420.5 106,-420.5 106,-489.5 106,-489.5 106,-495.5 100,-501.5 94,-501.5 94,-501.5 12,-501.5 12,-501.5 6,-501.5 0,-495.5 0,-489.5 0,-489.5 0,-420.5 0,-420.5 0,-414.5 6,-408.5 12,-408.5"/>
<text text-anchor="middle" x="53" y="-486.3" font-family="Times,serif" font-size="14.00">HomeController</text>
<polyline fill="none" stroke="black" points="0,-478.5 106,-478.5 "/>
<text text-anchor="start" x="8" y="-463.3" font-family="Times,serif" font-size="14.00">index</text>
<polyline fill="none" stroke="black" points="0,-455.5 106,-455.5 "/>
<polyline fill="none" stroke="black" points="0,-431.5 106,-431.5 "/>
<text text-anchor="start" x="8" y="-416.3" font-family="Times,serif" font-size="14.00">_layout</text>
</g>
<!-- ApplicationController -->
<g id="node4" class="node"><title>ApplicationController</title>
<path fill="none" stroke="black" d="M454,-119.5C454,-119.5 566,-119.5 566,-119.5 572,-119.5 578,-125.5 578,-131.5 578,-131.5 578,-201.5 578,-201.5 578,-207.5 572,-213.5 566,-213.5 566,-213.5 454,-213.5 454,-213.5 448,-213.5 442,-207.5 442,-201.5 442,-201.5 442,-131.5 442,-131.5 442,-125.5 448,-119.5 454,-119.5"/>
<text text-anchor="middle" x="510" y="-198.3" font-family="Times,serif" font-size="14.00">ApplicationController</text>
<polyline fill="none" stroke="black" points="442,-190.5 578,-190.5 "/>
<polyline fill="none" stroke="black" points="442,-166.5 578,-166.5 "/>
<polyline fill="none" stroke="black" points="442,-142.5 578,-142.5 "/>
<text text-anchor="start" x="450" y="-127.3" font-family="Times,serif" font-size="14.00">_layout</text>
</g>
<!-- PlayersController -->
<g id="node5" class="node"><title>PlayersController</title>
<path fill="none" stroke="black" d="M148,-340.5C148,-340.5 236,-340.5 236,-340.5 242,-340.5 248,-346.5 248,-352.5 248,-352.5 248,-541.5 248,-541.5 248,-547.5 242,-553.5 236,-553.5 236,-553.5 148,-553.5 148,-553.5 142,-553.5 136,-547.5 136,-541.5 136,-541.5 136,-352.5 136,-352.5 136,-346.5 142,-340.5 148,-340.5"/>
<text text-anchor="middle" x="192" y="-538.3" font-family="Times,serif" font-size="14.00">PlayersController</text>
<polyline fill="none" stroke="black" points="136,-530.5 248,-530.5 "/>
<text text-anchor="start" x="144" y="-515.3" font-family="Times,serif" font-size="14.00">create</text>
<text text-anchor="start" x="144" y="-500.3" font-family="Times,serif" font-size="14.00">destroy</text>
<text text-anchor="start" x="144" y="-485.3" font-family="Times,serif" font-size="14.00">edit</text>
<text text-anchor="start" x="144" y="-470.3" font-family="Times,serif" font-size="14.00">index</text>
<text text-anchor="start" x="144" y="-455.3" font-family="Times,serif" font-size="14.00">new</text>
<text text-anchor="start" x="144" y="-440.3" font-family="Times,serif" font-size="14.00">show</text>
<text text-anchor="start" x="144" y="-425.3" font-family="Times,serif" font-size="14.00">update</text>
<polyline fill="none" stroke="black" points="136,-417.5 248,-417.5 "/>
<polyline fill="none" stroke="black" points="136,-393.5 248,-393.5 "/>
<text text-anchor="start" x="144" y="-378.3" font-family="Times,serif" font-size="14.00">_layout</text>
<text text-anchor="start" x="144" y="-363.3" font-family="Times,serif" font-size="14.00">player_params</text>
<text text-anchor="start" x="144" y="-348.3" font-family="Times,serif" font-size="14.00">set_player</text>
</g>
<!-- GamesController -->
<g id="node6" class="node"><title>GamesController</title>
<path fill="none" stroke="black" d="M386,-374.5C386,-374.5 472,-374.5 472,-374.5 478,-374.5 484,-380.5 484,-386.5 484,-386.5 484,-575.5 484,-575.5 484,-581.5 478,-587.5 472,-587.5 472,-587.5 386,-587.5 386,-587.5 380,-587.5 374,-581.5 374,-575.5 374,-575.5 374,-386.5 374,-386.5 374,-380.5 380,-374.5 386,-374.5"/>
<text text-anchor="middle" x="429" y="-572.3" font-family="Times,serif" font-size="14.00">GamesController</text>
<polyline fill="none" stroke="black" points="374,-564.5 484,-564.5 "/>
<text text-anchor="start" x="382" y="-549.3" font-family="Times,serif" font-size="14.00">create</text>
<text text-anchor="start" x="382" y="-534.3" font-family="Times,serif" font-size="14.00">destroy</text>
<text text-anchor="start" x="382" y="-519.3" font-family="Times,serif" font-size="14.00">edit</text>
<text text-anchor="start" x="382" y="-504.3" font-family="Times,serif" font-size="14.00">index</text>
<text text-anchor="start" x="382" y="-489.3" font-family="Times,serif" font-size="14.00">new</text>
<text text-anchor="start" x="382" y="-474.3" font-family="Times,serif" font-size="14.00">show</text>
<text text-anchor="start" x="382" y="-459.3" font-family="Times,serif" font-size="14.00">update</text>
<polyline fill="none" stroke="black" points="374,-451.5 484,-451.5 "/>
<polyline fill="none" stroke="black" points="374,-427.5 484,-427.5 "/>
<text text-anchor="start" x="382" y="-412.3" font-family="Times,serif" font-size="14.00">_layout</text>
<text text-anchor="start" x="382" y="-397.3" font-family="Times,serif" font-size="14.00">game_params</text>
<text text-anchor="start" x="382" y="-382.3" font-family="Times,serif" font-size="14.00">set_game</text>
</g>
<!-- GameTypesController -->
<g id="node7" class="node"><title>GameTypesController</title>
<path fill="none" stroke="black" d="M131,-85.5C131,-85.5 245,-85.5 245,-85.5 251,-85.5 257,-91.5 257,-97.5 257,-97.5 257,-286.5 257,-286.5 257,-292.5 251,-298.5 245,-298.5 245,-298.5 131,-298.5 131,-298.5 125,-298.5 119,-292.5 119,-286.5 119,-286.5 119,-97.5 119,-97.5 119,-91.5 125,-85.5 131,-85.5"/>
<text text-anchor="middle" x="188" y="-283.3" font-family="Times,serif" font-size="14.00">GameTypesController</text>
<polyline fill="none" stroke="black" points="119,-275.5 257,-275.5 "/>
<text text-anchor="start" x="127" y="-260.3" font-family="Times,serif" font-size="14.00">create</text>
<text text-anchor="start" x="127" y="-245.3" font-family="Times,serif" font-size="14.00">destroy</text>
<text text-anchor="start" x="127" y="-230.3" font-family="Times,serif" font-size="14.00">edit</text>
<text text-anchor="start" x="127" y="-215.3" font-family="Times,serif" font-size="14.00">index</text>
<text text-anchor="start" x="127" y="-200.3" font-family="Times,serif" font-size="14.00">new</text>
<text text-anchor="start" x="127" y="-185.3" font-family="Times,serif" font-size="14.00">show</text>
<text text-anchor="start" x="127" y="-170.3" font-family="Times,serif" font-size="14.00">update</text>
<polyline fill="none" stroke="black" points="119,-162.5 257,-162.5 "/>
<polyline fill="none" stroke="black" points="119,-138.5 257,-138.5 "/>
<text text-anchor="start" x="127" y="-123.3" font-family="Times,serif" font-size="14.00">_layout</text>
<text text-anchor="start" x="127" y="-108.3" font-family="Times,serif" font-size="14.00">game_type_params</text>
<text text-anchor="start" x="127" y="-93.3" font-family="Times,serif" font-size="14.00">set_game_type</text>
</g>
</g>
</svg>
