<?xml version="1.0" encoding="UTF-8" standalone="no"?>
<!DOCTYPE svg PUBLIC "-//W3C//DTD SVG 1.1//EN"
 "http://www.w3.org/Graphics/SVG/1.1/DTD/svg11.dtd">
<!-- Generated by graphviz version 2.36.0 (20140111.2315)
 -->
<!-- Title: models_diagram Pages: 1 -->
<svg width="711pt" height="448pt"
 viewBox="0.00 0.00 711.00 448.00" xmlns="http://www.w3.org/2000/svg" xmlns:xlink="http://www.w3.org/1999/xlink">
<g id="graph0" class="graph" transform="scale(1 1) rotate(0) translate(4 444)">
<title>models_diagram</title>
<polygon fill="none" stroke="none" points="-4,4 -4,-444 707,-444 707,4 -4,4"/>
<!-- _diagram_info -->
<g id="node1" class="node"><title>_diagram_info</title>
<text text-anchor="start" x="8" y="-403.6" font-family="Times,serif" font-size="13.00">Models diagram</text>
<text text-anchor="start" x="8" y="-389.6" font-family="Times,serif" font-size="13.00">Date: Aug 19 2016 &#45; 22:02</text>
<text text-anchor="start" x="8" y="-375.6" font-family="Times,serif" font-size="13.00">Migration version: 20160819204309</text>
<text text-anchor="start" x="8" y="-361.6" font-family="Times,serif" font-size="13.00">Generated by RailRoady 1.5.1</text>
<text text-anchor="start" x="8" y="-347.6" font-family="Times,serif" font-size="13.00">http://railroady.prestonlee.com</text>
</g>
<!-- Player -->
<g id="node2" class="node"><title>Player</title>
<path fill="none" stroke="black" d="M244.5,-318.5C244.5,-318.5 351.5,-318.5 351.5,-318.5 357.5,-318.5 363.5,-324.5 363.5,-330.5 363.5,-330.5 363.5,-427.5 363.5,-427.5 363.5,-433.5 357.5,-439.5 351.5,-439.5 351.5,-439.5 244.5,-439.5 244.5,-439.5 238.5,-439.5 232.5,-433.5 232.5,-427.5 232.5,-427.5 232.5,-330.5 232.5,-330.5 232.5,-324.5 238.5,-318.5 244.5,-318.5"/>
<text text-anchor="middle" x="298" y="-424.3" font-family="Times,serif" font-size="14.00">Player</text>
<polyline fill="none" stroke="black" points="232.5,-416.5 363.5,-416.5 "/>
<text text-anchor="start" x="240.5" y="-401.3" font-family="Times,serif" font-size="14.00">id :INTEGER</text>
<text text-anchor="start" x="240.5" y="-386.3" font-family="Times,serif" font-size="14.00">firstname :varchar</text>
<text text-anchor="start" x="240.5" y="-371.3" font-family="Times,serif" font-size="14.00">lastname :varchar</text>
<text text-anchor="start" x="240.5" y="-356.3" font-family="Times,serif" font-size="14.00">email :varchar</text>
<text text-anchor="start" x="240.5" y="-341.3" font-family="Times,serif" font-size="14.00">created_at :datetime</text>
<text text-anchor="start" x="240.5" y="-326.3" font-family="Times,serif" font-size="14.00">updated_at :datetime</text>
</g>
<!-- Play -->
<g id="node3" class="node"><title>Play</title>
<path fill="none" stroke="black" d="M243.5,-1C243.5,-1 350.5,-1 350.5,-1 356.5,-1 362.5,-7 362.5,-13 362.5,-13 362.5,-95 362.5,-95 362.5,-101 356.5,-107 350.5,-107 350.5,-107 243.5,-107 243.5,-107 237.5,-107 231.5,-101 231.5,-95 231.5,-95 231.5,-13 231.5,-13 231.5,-7 237.5,-1 243.5,-1"/>
<text text-anchor="middle" x="297" y="-91.8" font-family="Times,serif" font-size="14.00">Play</text>
<polyline fill="none" stroke="black" points="231.5,-84 362.5,-84 "/>
<text text-anchor="start" x="239.5" y="-68.8" font-family="Times,serif" font-size="14.00">id :INTEGER</text>
<text text-anchor="start" x="239.5" y="-53.8" font-family="Times,serif" font-size="14.00">game_id :integer</text>
<text text-anchor="start" x="239.5" y="-38.8" font-family="Times,serif" font-size="14.00">player_id :integer</text>
<text text-anchor="start" x="239.5" y="-23.8" font-family="Times,serif" font-size="14.00">created_at :datetime</text>
<text text-anchor="start" x="239.5" y="-8.8" font-family="Times,serif" font-size="14.00">updated_at :datetime</text>
</g>
<!-- Player&#45;&gt;Play -->
<g id="edge1" class="edge"><title>Player&#45;&gt;Play</title>
<path fill="none" stroke="#5fe4b9" d="M268.456,-310.469C265.383,-301.061 262.748,-291.398 261,-282 249.782,-221.701 249.285,-204.204 261,-144 262.753,-134.989 265.419,-125.735 268.523,-116.761"/>
<ellipse fill="none" stroke="#5fe4b9" cx="269.838" cy="-314.515" rx="4.00001" ry="4.00001"/>
<polygon fill="#5fe4b9" stroke="#5fe4b9" points="268.601,-116.547 276.266,-108.705 270.32,-111.852 272.04,-107.157 272.04,-107.157 272.04,-107.157 270.32,-111.852 267.815,-105.61 268.601,-116.547 268.601,-116.547"/>
</g>
<!-- Game -->
<g id="node4" class="node"><title>Game</title>
<path fill="none" stroke="black" d="M281.5,-152.5C281.5,-152.5 424.5,-152.5 424.5,-152.5 430.5,-152.5 436.5,-158.5 436.5,-164.5 436.5,-164.5 436.5,-261.5 436.5,-261.5 436.5,-267.5 430.5,-273.5 424.5,-273.5 424.5,-273.5 281.5,-273.5 281.5,-273.5 275.5,-273.5 269.5,-267.5 269.5,-261.5 269.5,-261.5 269.5,-164.5 269.5,-164.5 269.5,-158.5 275.5,-152.5 281.5,-152.5"/>
<text text-anchor="middle" x="353" y="-258.3" font-family="Times,serif" font-size="14.00">Game</text>
<polyline fill="none" stroke="black" points="269.5,-250.5 436.5,-250.5 "/>
<text text-anchor="start" x="277.5" y="-235.3" font-family="Times,serif" font-size="14.00">id :INTEGER</text>
<text text-anchor="start" x="277.5" y="-220.3" font-family="Times,serif" font-size="14.00">date_of_game :date</text>
<text text-anchor="start" x="277.5" y="-205.3" font-family="Times,serif" font-size="14.00">leauge_id :integer</text>
<text text-anchor="start" x="277.5" y="-190.3" font-family="Times,serif" font-size="14.00">number_of_players :integer</text>
<text text-anchor="start" x="277.5" y="-175.3" font-family="Times,serif" font-size="14.00">created_at :datetime</text>
<text text-anchor="start" x="277.5" y="-160.3" font-family="Times,serif" font-size="14.00">updated_at :datetime</text>
</g>
<!-- Player&#45;&gt;Game -->
<g id="edge2" class="edge"><title>Player&#45;&gt;Game</title>
<path fill="none" stroke="#b1aff2" d="M321.259,-308.647C324.066,-300.275 326.934,-291.723 329.742,-283.351"/>
<polygon fill="#b1aff2" stroke="#b1aff2" points="321.192,-308.847 313.745,-316.897 319.602,-313.588 318.012,-318.328 318.012,-318.328 318.012,-318.328 319.602,-313.588 322.278,-319.759 321.192,-308.847 321.192,-308.847"/>
<polygon fill="#b1aff2" stroke="#b1aff2" points="329.823,-283.108 337.27,-275.058 331.413,-278.368 333.003,-273.627 333.003,-273.627 333.003,-273.627 331.413,-278.368 328.737,-272.196 329.823,-283.108 329.823,-283.108"/>
</g>
<!-- Game&#45;&gt;Play -->
<g id="edge3" class="edge"><title>Game&#45;&gt;Play</title>
<path fill="none" stroke="#3af459" d="M328.918,-144.484C325.648,-135.316 322.305,-125.944 319.073,-116.882"/>
<ellipse fill="none" stroke="#3af459" cx="330.325" cy="-148.43" rx="4.00001" ry="4.00001"/>
<polygon fill="#3af459" stroke="#3af459" points="318.977,-116.613 319.856,-105.683 317.297,-111.904 315.617,-107.194 315.617,-107.194 315.617,-107.194 317.297,-111.904 311.379,-108.706 318.977,-116.613 318.977,-116.613"/>
</g>
<!-- ApplicationRecord -->
<g id="node5" class="node"><title>ApplicationRecord</title>
<ellipse fill="none" stroke="black" cx="459" cy="-379" rx="77.0154" ry="18"/>
<text text-anchor="middle" x="459" y="-375.3" font-family="Times,serif" font-size="14.00">ApplicationRecord</text>
</g>
<!-- League -->
<g id="node6" class="node"><title>League</title>
<path fill="none" stroke="black" d="M548.5,-145C548.5,-145 691.5,-145 691.5,-145 697.5,-145 703.5,-151 703.5,-157 703.5,-157 703.5,-269 703.5,-269 703.5,-275 697.5,-281 691.5,-281 691.5,-281 548.5,-281 548.5,-281 542.5,-281 536.5,-275 536.5,-269 536.5,-269 536.5,-157 536.5,-157 536.5,-151 542.5,-145 548.5,-145"/>
<text text-anchor="middle" x="620" y="-265.8" font-family="Times,serif" font-size="14.00">League</text>
<polyline fill="none" stroke="black" points="536.5,-258 703.5,-258 "/>
<text text-anchor="start" x="544.5" y="-242.8" font-family="Times,serif" font-size="14.00">id :INTEGER</text>
<text text-anchor="start" x="544.5" y="-227.8" font-family="Times,serif" font-size="14.00">game_type_id :integer</text>
<text text-anchor="start" x="544.5" y="-212.8" font-family="Times,serif" font-size="14.00">name :varchar</text>
<text text-anchor="start" x="544.5" y="-197.8" font-family="Times,serif" font-size="14.00">season :varchar</text>
<text text-anchor="start" x="544.5" y="-182.8" font-family="Times,serif" font-size="14.00">number_of_players :integer</text>
<text text-anchor="start" x="544.5" y="-167.8" font-family="Times,serif" font-size="14.00">created_at :datetime</text>
<text text-anchor="start" x="544.5" y="-152.8" font-family="Times,serif" font-size="14.00">updated_at :datetime</text>
</g>
<!-- GameType -->
<g id="node7" class="node"><title>GameType</title>
<path fill="none" stroke="black" d="M566.5,-333.5C566.5,-333.5 673.5,-333.5 673.5,-333.5 679.5,-333.5 685.5,-339.5 685.5,-345.5 685.5,-345.5 685.5,-412.5 685.5,-412.5 685.5,-418.5 679.5,-424.5 673.5,-424.5 673.5,-424.5 566.5,-424.5 566.5,-424.5 560.5,-424.5 554.5,-418.5 554.5,-412.5 554.5,-412.5 554.5,-345.5 554.5,-345.5 554.5,-339.5 560.5,-333.5 566.5,-333.5"/>
<text text-anchor="middle" x="620" y="-409.3" font-family="Times,serif" font-size="14.00">GameType</text>
<polyline fill="none" stroke="black" points="554.5,-401.5 685.5,-401.5 "/>
<text text-anchor="start" x="562.5" y="-386.3" font-family="Times,serif" font-size="14.00">id :INTEGER</text>
<text text-anchor="start" x="562.5" y="-371.3" font-family="Times,serif" font-size="14.00">name :varchar</text>
<text text-anchor="start" x="562.5" y="-356.3" font-family="Times,serif" font-size="14.00">created_at :datetime</text>
<text text-anchor="start" x="562.5" y="-341.3" font-family="Times,serif" font-size="14.00">updated_at :datetime</text>
</g>
<!-- GameType&#45;&gt;League -->
<g id="edge4" class="edge"><title>GameType&#45;&gt;League</title>
<path fill="none" stroke="#77d3ab" d="M620,-325.118C620,-314.303 620,-302.712 620,-291.245"/>
<ellipse fill="none" stroke="#77d3ab" cx="620" cy="-329.186" rx="4" ry="4"/>
<polygon fill="#77d3ab" stroke="#77d3ab" points="620,-291.223 624.5,-281.223 620,-286.223 620,-281.223 620,-281.223 620,-281.223 620,-286.223 615.5,-281.223 620,-291.223 620,-291.223"/>
</g>
</g>
</svg>
