<?xml version="1.0" encoding="UTF-8" standalone="no"?>
<!DOCTYPE svg PUBLIC "-//W3C//DTD SVG 1.1//EN"
 "http://www.w3.org/Graphics/SVG/1.1/DTD/svg11.dtd">
<!-- Generated by graphviz version 2.36.0 (20140111.2315)
 -->
<!-- Title: models_diagram Pages: 1 -->
<svg width="511pt" height="374pt"
 viewBox="0.00 0.00 511.00 374.00" xmlns="http://www.w3.org/2000/svg" xmlns:xlink="http://www.w3.org/1999/xlink">
<g id="graph0" class="graph" transform="scale(1 1) rotate(0) translate(4 370)">
<title>models_diagram</title>
<polygon fill="none" stroke="none" points="-4,4 -4,-370 507,-370 507,4 -4,4"/>
<!-- _diagram_info -->
<g id="node1" class="node"><title>_diagram_info</title>
<text text-anchor="start" x="7" y="-351.6" font-family="Times,serif" font-size="13.00">Models diagram</text>
<text text-anchor="start" x="7" y="-337.6" font-family="Times,serif" font-size="13.00">Date: Aug 20 2016 &#45; 00:33</text>
<text text-anchor="start" x="7" y="-323.6" font-family="Times,serif" font-size="13.00">Migration version: 20160819232825</text>
<text text-anchor="start" x="7" y="-309.6" font-family="Times,serif" font-size="13.00">Generated by RailRoady 1.5.1</text>
<text text-anchor="start" x="7" y="-295.6" font-family="Times,serif" font-size="13.00">http://railroady.prestonlee.com</text>
</g>
<!-- Player -->
<g id="node2" class="node"><title>Player</title>
<ellipse fill="none" stroke="black" cx="281" cy="-162" rx="33.2209" ry="18"/>
<text text-anchor="middle" x="281" y="-158.3" font-family="Times,serif" font-size="14.00">Player</text>
</g>
<!-- Play -->
<g id="node3" class="node"><title>Play</title>
<ellipse fill="none" stroke="black" cx="251" cy="-18" rx="27" ry="18"/>
<text text-anchor="middle" x="251" y="-14.3" font-family="Times,serif" font-size="14.00">Play</text>
</g>
<!-- Player&#45;&gt;Play -->
<g id="edge1" class="edge"><title>Player&#45;&gt;Play</title>
<path fill="none" stroke="#67f582" d="M275.703,-135.929C270.378,-110.725 262.196,-71.9942 256.724,-46.0947"/>
<ellipse fill="none" stroke="#67f582" cx="276.554" cy="-139.958" rx="4.00001" ry="4.00001"/>
<polygon fill="#67f582" stroke="#67f582" points="256.699,-45.9733 259.034,-35.2591 255.665,-41.0813 254.632,-36.1893 254.632,-36.1893 254.632,-36.1893 255.665,-41.0813 250.229,-37.1195 256.699,-45.9733 256.699,-45.9733"/>
</g>
<!-- Game -->
<g id="node4" class="node"><title>Game</title>
<ellipse fill="none" stroke="black" cx="221" cy="-90" rx="32.2457" ry="18"/>
<text text-anchor="middle" x="221" y="-86.3" font-family="Times,serif" font-size="14.00">Game</text>
</g>
<!-- Player&#45;&gt;Game -->
<g id="edge2" class="edge"><title>Player&#45;&gt;Game</title>
<path fill="none" stroke="#55e756" d="M260.981,-137.644C254.528,-130.116 247.379,-121.776 240.933,-114.255"/>
<polygon fill="#55e756" stroke="#55e756" points="261.176,-137.872 264.267,-148.393 264.43,-141.668 267.684,-145.465 267.684,-145.465 267.684,-145.465 264.43,-141.668 271.101,-142.536 261.176,-137.872 261.176,-137.872"/>
<polygon fill="#55e756" stroke="#55e756" points="240.787,-114.084 237.695,-103.563 237.533,-110.288 234.279,-106.492 234.279,-106.492 234.279,-106.492 237.533,-110.288 230.862,-109.42 240.787,-114.084 240.787,-114.084"/>
</g>
<!-- In -->
<g id="node7" class="node"><title>In</title>
<ellipse fill="none" stroke="black" cx="339" cy="-90" rx="27" ry="18"/>
<text text-anchor="middle" x="339" y="-86.3" font-family="Times,serif" font-size="14.00">In</text>
</g>
<!-- Player&#45;&gt;In -->
<g id="edge3" class="edge"><title>Player&#45;&gt;In</title>
<path fill="none" stroke="#4f9943" d="M299.387,-138.808C305.889,-130.961 313.217,-122.118 319.785,-114.19"/>
<ellipse fill="none" stroke="#4f9943" cx="296.713" cy="-142.036" rx="4.00002" ry="4.00002"/>
<polygon fill="#4f9943" stroke="#4f9943" points="319.909,-114.04 329.755,-109.211 323.099,-110.19 326.29,-106.34 326.29,-106.34 326.29,-106.34 323.099,-110.19 322.824,-103.469 319.909,-114.04 319.909,-114.04"/>
</g>
<!-- Game&#45;&gt;Play -->
<g id="edge4" class="edge"><title>Game&#45;&gt;Play</title>
<path fill="none" stroke="#3c165f" d="M231.307,-64.9496C234.106,-58.4184 237.148,-51.3217 239.984,-44.7031"/>
<ellipse fill="none" stroke="#3c165f" cx="229.685" cy="-68.7344" rx="4.00002" ry="4.00002"/>
<polygon fill="#3c165f" stroke="#3c165f" points="240.002,-44.6614 248.078,-37.2426 241.972,-40.0657 243.941,-35.4699 243.941,-35.4699 243.941,-35.4699 241.972,-40.0657 239.805,-33.6973 240.002,-44.6614 240.002,-44.6614"/>
</g>
<!-- ApplicationRecord -->
<g id="node5" class="node"><title>ApplicationRecord</title>
<ellipse fill="none" stroke="black" cx="426" cy="-327" rx="77.0154" ry="18"/>
<text text-anchor="middle" x="426" y="-323.3" font-family="Times,serif" font-size="14.00">ApplicationRecord</text>
</g>
<!-- League -->
<g id="node6" class="node"><title>League</title>
<ellipse fill="none" stroke="black" cx="281" cy="-234" rx="36.096" ry="18"/>
<text text-anchor="middle" x="281" y="-230.3" font-family="Times,serif" font-size="14.00">League</text>
</g>
<!-- League&#45;&gt;Player -->
<g id="edge7" class="edge"><title>League&#45;&gt;Player</title>
<path fill="none" stroke="#03eba9" d="M281,-205.665C281,-200.687 281,-195.491 281,-190.507"/>
<polygon fill="#03eba9" stroke="#03eba9" points="281,-205.697 276.5,-215.697 281,-210.697 281,-215.697 281,-215.697 281,-215.697 281,-210.697 285.5,-215.697 281,-205.697 281,-205.697"/>
<polygon fill="#03eba9" stroke="#03eba9" points="281,-190.104 285.5,-180.104 281,-185.104 281,-180.104 281,-180.104 281,-180.104 281,-185.104 276.5,-180.104 281,-190.104 281,-190.104"/>
</g>
<!-- League&#45;&gt;Game -->
<g id="edge5" class="edge"><title>League&#45;&gt;Game</title>
<path fill="none" stroke="#8dd416" d="M260.086,-211.416C252.378,-202.359 244.253,-191.31 239,-180 229.896,-160.399 225.38,-136.268 223.15,-118.08"/>
<ellipse fill="none" stroke="#8dd416" cx="262.931" cy="-214.636" rx="4.00002" ry="4.00002"/>
<polygon fill="#8dd416" stroke="#8dd416" points="223.15,-118.08 226.558,-107.657 222.617,-113.108 222.083,-108.137 222.083,-108.137 222.083,-108.137 222.617,-113.108 217.609,-108.617 223.15,-118.08 223.15,-118.08"/>
</g>
<!-- League&#45;&gt;In -->
<g id="edge6" class="edge"><title>League&#45;&gt;In</title>
<path fill="none" stroke="#e413ea" d="M302.04,-211.474C309.766,-202.425 317.87,-191.366 323,-180 331.813,-160.475 335.777,-136.479 337.557,-118.325"/>
<ellipse fill="none" stroke="#e413ea" cx="299.184" cy="-214.692" rx="4.00002" ry="4.00002"/>
<polygon fill="#e413ea" stroke="#e413ea" points="337.576,-118.096 342.875,-108.496 337.983,-113.113 338.39,-108.129 338.39,-108.129 338.39,-108.129 337.983,-113.113 333.905,-107.763 337.576,-118.096 337.576,-118.096"/>
</g>
<!-- GameType -->
<g id="node8" class="node"><title>GameType</title>
<ellipse fill="none" stroke="black" cx="281" cy="-327" rx="50.0684" ry="18"/>
<text text-anchor="middle" x="281" y="-323.3" font-family="Times,serif" font-size="14.00">GameType</text>
</g>
<!-- GameType&#45;&gt;League -->
<g id="edge8" class="edge"><title>GameType&#45;&gt;League</title>
<path fill="none" stroke="#57ad82" d="M281,-300.729C281,-288.725 281,-274.362 281,-262.129"/>
<ellipse fill="none" stroke="#57ad82" cx="281" cy="-304.884" rx="4" ry="4"/>
<polygon fill="#57ad82" stroke="#57ad82" points="281,-262.04 285.5,-252.04 281,-257.04 281,-252.04 281,-252.04 281,-252.04 281,-257.04 276.5,-252.04 281,-262.04 281,-262.04"/>
</g>
</g>
</svg>
