<?xml version="1.0" encoding="UTF-8" standalone="no"?>
<!DOCTYPE svg PUBLIC "-//W3C//DTD SVG 1.1//EN"
 "http://www.w3.org/Graphics/SVG/1.1/DTD/svg11.dtd">
<!-- Generated by graphviz version 2.36.0 (20140111.2315)
 -->
<!-- Title: models_diagram Pages: 1 -->
<svg width="543pt" height="734pt"
 viewBox="0.00 0.00 543.00 734.00" xmlns="http://www.w3.org/2000/svg" xmlns:xlink="http://www.w3.org/1999/xlink">
<g id="graph0" class="graph" transform="scale(1 1) rotate(0) translate(4 730)">
<title>models_diagram</title>
<polygon fill="none" stroke="none" points="-4,4 -4,-730 539,-730 539,4 -4,4"/>
<!-- _diagram_info -->
<g id="node1" class="node"><title>_diagram_info</title>
<text text-anchor="start" x="7" y="-704.6" font-family="Times,serif" font-size="13.00">Models diagram</text>
<text text-anchor="start" x="7" y="-690.6" font-family="Times,serif" font-size="13.00">Date: Aug 20 2016 &#45; 00:33</text>
<text text-anchor="start" x="7" y="-676.6" font-family="Times,serif" font-size="13.00">Migration version: 20160819232825</text>
<text text-anchor="start" x="7" y="-662.6" font-family="Times,serif" font-size="13.00">Generated by RailRoady 1.5.1</text>
<text text-anchor="start" x="7" y="-648.6" font-family="Times,serif" font-size="13.00">http://railroady.prestonlee.com</text>
</g>
<!-- Player -->
<g id="node2" class="node"><title>Player</title>
<path fill="none" stroke="black" d="M243.5,-302.5C243.5,-302.5 350.5,-302.5 350.5,-302.5 356.5,-302.5 362.5,-308.5 362.5,-314.5 362.5,-314.5 362.5,-411.5 362.5,-411.5 362.5,-417.5 356.5,-423.5 350.5,-423.5 350.5,-423.5 243.5,-423.5 243.5,-423.5 237.5,-423.5 231.5,-417.5 231.5,-411.5 231.5,-411.5 231.5,-314.5 231.5,-314.5 231.5,-308.5 237.5,-302.5 243.5,-302.5"/>
<text text-anchor="middle" x="297" y="-408.3" font-family="Times,serif" font-size="14.00">Player</text>
<polyline fill="none" stroke="black" points="231.5,-400.5 362.5,-400.5 "/>
<text text-anchor="start" x="239.5" y="-385.3" font-family="Times,serif" font-size="14.00">id :INTEGER</text>
<text text-anchor="start" x="239.5" y="-370.3" font-family="Times,serif" font-size="14.00">firstname :varchar</text>
<text text-anchor="start" x="239.5" y="-355.3" font-family="Times,serif" font-size="14.00">lastname :varchar</text>
<text text-anchor="start" x="239.5" y="-340.3" font-family="Times,serif" font-size="14.00">email :varchar</text>
<text text-anchor="start" x="239.5" y="-325.3" font-family="Times,serif" font-size="14.00">created_at :datetime</text>
<text text-anchor="start" x="239.5" y="-310.3" font-family="Times,serif" font-size="14.00">updated_at :datetime</text>
</g>
<!-- Play -->
<g id="node3" class="node"><title>Play</title>
<path fill="none" stroke="black" d="M187.5,-1C187.5,-1 294.5,-1 294.5,-1 300.5,-1 306.5,-7 306.5,-13 306.5,-13 306.5,-95 306.5,-95 306.5,-101 300.5,-107 294.5,-107 294.5,-107 187.5,-107 187.5,-107 181.5,-107 175.5,-101 175.5,-95 175.5,-95 175.5,-13 175.5,-13 175.5,-7 181.5,-1 187.5,-1"/>
<text text-anchor="middle" x="241" y="-91.8" font-family="Times,serif" font-size="14.00">Play</text>
<polyline fill="none" stroke="black" points="175.5,-84 306.5,-84 "/>
<text text-anchor="start" x="183.5" y="-68.8" font-family="Times,serif" font-size="14.00">id :INTEGER</text>
<text text-anchor="start" x="183.5" y="-53.8" font-family="Times,serif" font-size="14.00">game_id :integer</text>
<text text-anchor="start" x="183.5" y="-38.8" font-family="Times,serif" font-size="14.00">player_id :integer</text>
<text text-anchor="start" x="183.5" y="-23.8" font-family="Times,serif" font-size="14.00">created_at :datetime</text>
<text text-anchor="start" x="183.5" y="-8.8" font-family="Times,serif" font-size="14.00">updated_at :datetime</text>
</g>
<!-- Player&#45;&gt;Play -->
<g id="edge1" class="edge"><title>Player&#45;&gt;Play</title>
<path fill="none" stroke="#24f96c" d="M296.423,-294.221C294.752,-250.745 290.112,-193.396 278,-144 275.805,-135.049 272.842,-125.829 269.543,-116.872"/>
<ellipse fill="none" stroke="#24f96c" cx="296.571" cy="-298.451" rx="4" ry="4"/>
<polygon fill="#24f96c" stroke="#24f96c" points="269.443,-116.612 270.051,-105.663 267.647,-111.946 265.851,-107.28 265.851,-107.28 265.851,-107.28 267.647,-111.946 261.652,-108.896 269.443,-116.612 269.443,-116.612"/>
</g>
<!-- Game -->
<g id="node4" class="node"><title>Game</title>
<path fill="none" stroke="black" d="M114.5,-144.5C114.5,-144.5 257.5,-144.5 257.5,-144.5 263.5,-144.5 269.5,-150.5 269.5,-156.5 269.5,-156.5 269.5,-253.5 269.5,-253.5 269.5,-259.5 263.5,-265.5 257.5,-265.5 257.5,-265.5 114.5,-265.5 114.5,-265.5 108.5,-265.5 102.5,-259.5 102.5,-253.5 102.5,-253.5 102.5,-156.5 102.5,-156.5 102.5,-150.5 108.5,-144.5 114.5,-144.5"/>
<text text-anchor="middle" x="186" y="-250.3" font-family="Times,serif" font-size="14.00">Game</text>
<polyline fill="none" stroke="black" points="102.5,-242.5 269.5,-242.5 "/>
<text text-anchor="start" x="110.5" y="-227.3" font-family="Times,serif" font-size="14.00">id :INTEGER</text>
<text text-anchor="start" x="110.5" y="-212.3" font-family="Times,serif" font-size="14.00">date_of_game :date</text>
<text text-anchor="start" x="110.5" y="-197.3" font-family="Times,serif" font-size="14.00">league_id :integer</text>
<text text-anchor="start" x="110.5" y="-182.3" font-family="Times,serif" font-size="14.00">number_of_players :integer</text>
<text text-anchor="start" x="110.5" y="-167.3" font-family="Times,serif" font-size="14.00">created_at :datetime</text>
<text text-anchor="start" x="110.5" y="-152.3" font-family="Times,serif" font-size="14.00">updated_at :datetime</text>
</g>
<!-- Player&#45;&gt;Game -->
<g id="edge2" class="edge"><title>Player&#45;&gt;Game</title>
<path fill="none" stroke="#bb1231" d="M248.57,-293.936C243.867,-287.327 239.096,-280.621 234.393,-274.012"/>
<polygon fill="#bb1231" stroke="#bb1231" points="248.604,-293.985 250.735,-304.741 251.503,-298.059 254.402,-302.132 254.402,-302.132 254.402,-302.132 251.503,-298.059 258.069,-299.524 248.604,-293.985 248.604,-293.985"/>
<polygon fill="#bb1231" stroke="#bb1231" points="234.282,-273.855 232.151,-263.098 231.383,-269.781 228.484,-265.707 228.484,-265.707 228.484,-265.707 231.383,-269.781 224.817,-268.316 234.282,-273.855 234.282,-273.855"/>
</g>
<!-- In -->
<g id="node7" class="node"><title>In</title>
<path fill="none" stroke="black" d="M337.5,-152C337.5,-152 444.5,-152 444.5,-152 450.5,-152 456.5,-158 456.5,-164 456.5,-164 456.5,-246 456.5,-246 456.5,-252 450.5,-258 444.5,-258 444.5,-258 337.5,-258 337.5,-258 331.5,-258 325.5,-252 325.5,-246 325.5,-246 325.5,-164 325.5,-164 325.5,-158 331.5,-152 337.5,-152"/>
<text text-anchor="middle" x="391" y="-242.8" font-family="Times,serif" font-size="14.00">In</text>
<polyline fill="none" stroke="black" points="325.5,-235 456.5,-235 "/>
<text text-anchor="start" x="333.5" y="-219.8" font-family="Times,serif" font-size="14.00">id :INTEGER</text>
<text text-anchor="start" x="333.5" y="-204.8" font-family="Times,serif" font-size="14.00">league_id :integer</text>
<text text-anchor="start" x="333.5" y="-189.8" font-family="Times,serif" font-size="14.00">player_id :integer</text>
<text text-anchor="start" x="333.5" y="-174.8" font-family="Times,serif" font-size="14.00">created_at :datetime</text>
<text text-anchor="start" x="333.5" y="-159.8" font-family="Times,serif" font-size="14.00">updated_at :datetime</text>
</g>
<!-- Player&#45;&gt;In -->
<g id="edge3" class="edge"><title>Player&#45;&gt;In</title>
<path fill="none" stroke="#24c43b" d="M337.21,-295.269C342.891,-285.841 348.707,-276.188 354.317,-266.878"/>
<ellipse fill="none" stroke="#24c43b" cx="335.138" cy="-298.706" rx="4.00002" ry="4.00002"/>
<polygon fill="#24c43b" stroke="#24c43b" points="354.461,-266.64 363.476,-260.397 357.041,-262.357 359.622,-258.074 359.622,-258.074 359.622,-258.074 357.041,-262.357 355.767,-255.752 354.461,-266.64 354.461,-266.64"/>
</g>
<!-- Game&#45;&gt;Play -->
<g id="edge4" class="edge"><title>Game&#45;&gt;Play</title>
<path fill="none" stroke="#44b74d" d="M210.843,-136.698C213.309,-130.019 215.803,-123.262 218.245,-116.644"/>
<ellipse fill="none" stroke="#44b74d" cx="209.439" cy="-140.502" rx="4.00001" ry="4.00001"/>
<polygon fill="#44b74d" stroke="#44b74d" points="218.315,-116.455 226,-108.632 220.047,-111.764 221.778,-107.074 221.778,-107.074 221.778,-107.074 220.047,-111.764 217.557,-105.515 218.315,-116.455 218.315,-116.455"/>
</g>
<!-- ApplicationRecord -->
<g id="node5" class="node"><title>ApplicationRecord</title>
<ellipse fill="none" stroke="black" cx="458" cy="-680" rx="77.0154" ry="18"/>
<text text-anchor="middle" x="458" y="-676.3" font-family="Times,serif" font-size="14.00">ApplicationRecord</text>
</g>
<!-- League -->
<g id="node6" class="node"><title>League</title>
<path fill="none" stroke="black" d="M225.5,-461C225.5,-461 368.5,-461 368.5,-461 374.5,-461 380.5,-467 380.5,-473 380.5,-473 380.5,-585 380.5,-585 380.5,-591 374.5,-597 368.5,-597 368.5,-597 225.5,-597 225.5,-597 219.5,-597 213.5,-591 213.5,-585 213.5,-585 213.5,-473 213.5,-473 213.5,-467 219.5,-461 225.5,-461"/>
<text text-anchor="middle" x="297" y="-581.8" font-family="Times,serif" font-size="14.00">League</text>
<polyline fill="none" stroke="black" points="213.5,-574 380.5,-574 "/>
<text text-anchor="start" x="221.5" y="-558.8" font-family="Times,serif" font-size="14.00">id :INTEGER</text>
<text text-anchor="start" x="221.5" y="-543.8" font-family="Times,serif" font-size="14.00">game_type_id :integer</text>
<text text-anchor="start" x="221.5" y="-528.8" font-family="Times,serif" font-size="14.00">name :varchar</text>
<text text-anchor="start" x="221.5" y="-513.8" font-family="Times,serif" font-size="14.00">season :varchar</text>
<text text-anchor="start" x="221.5" y="-498.8" font-family="Times,serif" font-size="14.00">number_of_players :integer</text>
<text text-anchor="start" x="221.5" y="-483.8" font-family="Times,serif" font-size="14.00">created_at :datetime</text>
<text text-anchor="start" x="221.5" y="-468.8" font-family="Times,serif" font-size="14.00">updated_at :datetime</text>
</g>
<!-- League&#45;&gt;Player -->
<g id="edge7" class="edge"><title>League&#45;&gt;Player</title>
<path fill="none" stroke="#a9c1bd" d="M297,-450.656C297,-445.139 297,-439.594 297,-434.121"/>
<polygon fill="#a9c1bd" stroke="#a9c1bd" points="297,-450.822 292.5,-460.822 297,-455.822 297,-460.822 297,-460.822 297,-460.822 297,-455.822 301.5,-460.822 297,-450.822 297,-450.822"/>
<polygon fill="#a9c1bd" stroke="#a9c1bd" points="297,-433.711 301.5,-423.711 297,-428.711 297,-423.711 297,-423.711 297,-423.711 297,-428.711 292.5,-423.711 297,-433.711 297,-433.711"/>
</g>
<!-- League&#45;&gt;Game -->
<g id="edge5" class="edge"><title>League&#45;&gt;Game</title>
<path fill="none" stroke="#b6d01c" d="M238.431,-453.932C232.546,-444.229 227.203,-434.129 223,-424 203.415,-376.795 194.194,-319.731 189.854,-275.828"/>
<ellipse fill="none" stroke="#b6d01c" cx="240.683" cy="-457.53" rx="4.00002" ry="4.00002"/>
<polygon fill="#b6d01c" stroke="#b6d01c" points="189.849,-275.776 193.406,-265.404 189.387,-270.798 188.926,-265.819 188.926,-265.819 188.926,-265.819 189.387,-270.798 184.445,-266.235 189.849,-275.776 189.849,-275.776"/>
</g>
<!-- League&#45;&gt;In -->
<g id="edge6" class="edge"><title>League&#45;&gt;In</title>
<path fill="none" stroke="#0201ef" d="M356.472,-453.993C362.168,-444.311 367.22,-434.199 371,-424 389.566,-373.912 393.774,-313.111 393.793,-268.459"/>
<ellipse fill="none" stroke="#0201ef" cx="354.303" cy="-457.548" rx="4.00002" ry="4.00002"/>
<polygon fill="#0201ef" stroke="#0201ef" points="393.793,-268.33 398.227,-258.301 393.76,-263.331 393.727,-258.331 393.727,-258.331 393.727,-258.331 393.76,-263.331 389.227,-258.36 393.793,-268.33 393.793,-268.33"/>
</g>
<!-- GameType -->
<g id="node8" class="node"><title>GameType</title>
<path fill="none" stroke="black" d="M243.5,-634.5C243.5,-634.5 350.5,-634.5 350.5,-634.5 356.5,-634.5 362.5,-640.5 362.5,-646.5 362.5,-646.5 362.5,-713.5 362.5,-713.5 362.5,-719.5 356.5,-725.5 350.5,-725.5 350.5,-725.5 243.5,-725.5 243.5,-725.5 237.5,-725.5 231.5,-719.5 231.5,-713.5 231.5,-713.5 231.5,-646.5 231.5,-646.5 231.5,-640.5 237.5,-634.5 243.5,-634.5"/>
<text text-anchor="middle" x="297" y="-710.3" font-family="Times,serif" font-size="14.00">GameType</text>
<polyline fill="none" stroke="black" points="231.5,-702.5 362.5,-702.5 "/>
<text text-anchor="start" x="239.5" y="-687.3" font-family="Times,serif" font-size="14.00">id :INTEGER</text>
<text text-anchor="start" x="239.5" y="-672.3" font-family="Times,serif" font-size="14.00">name :varchar</text>
<text text-anchor="start" x="239.5" y="-657.3" font-family="Times,serif" font-size="14.00">created_at :datetime</text>
<text text-anchor="start" x="239.5" y="-642.3" font-family="Times,serif" font-size="14.00">updated_at :datetime</text>
</g>
<!-- GameType&#45;&gt;League -->
<g id="edge8" class="edge"><title>GameType&#45;&gt;League</title>
<path fill="none" stroke="#01de66" d="M297,-626.209C297,-620.061 297,-613.697 297,-607.306"/>
<ellipse fill="none" stroke="#01de66" cx="297" cy="-630.295" rx="4" ry="4"/>
<polygon fill="#01de66" stroke="#01de66" points="297,-607.267 301.5,-597.267 297,-602.267 297,-597.267 297,-597.267 297,-597.267 297,-602.267 292.5,-597.267 297,-607.267 297,-607.267"/>
</g>
</g>
</svg>
