<?xml version="1.0" encoding="UTF-8" standalone="no"?>
<!DOCTYPE svg PUBLIC "-//W3C//DTD SVG 1.1//EN"
 "http://www.w3.org/Graphics/SVG/1.1/DTD/svg11.dtd">
<!-- Generated by graphviz version 2.36.0 (20140111.2315)
 -->
<!-- Title: models_diagram Pages: 1 -->
<svg width="693pt" height="462pt"
 viewBox="0.00 0.00 693.00 462.00" xmlns="http://www.w3.org/2000/svg" xmlns:xlink="http://www.w3.org/1999/xlink">
<g id="graph0" class="graph" transform="scale(1 1) rotate(0) translate(4 458)">
<title>models_diagram</title>
<polygon fill="none" stroke="none" points="-4,4 -4,-458 689,-458 689,4 -4,4"/>
<!-- _diagram_info -->
<g id="node1" class="node"><title>_diagram_info</title>
<text text-anchor="start" x="8" y="-417.6" font-family="Times,serif" font-size="13.00">Models diagram</text>
<text text-anchor="start" x="8" y="-403.6" font-family="Times,serif" font-size="13.00">Date: Sep 12 2016 &#45; 20:31</text>
<text text-anchor="start" x="8" y="-389.6" font-family="Times,serif" font-size="13.00">Migration version: 20160819202605</text>
<text text-anchor="start" x="8" y="-375.6" font-family="Times,serif" font-size="13.00">Generated by RailRoady 1.5.1</text>
<text text-anchor="start" x="8" y="-361.6" font-family="Times,serif" font-size="13.00">http://railroady.prestonlee.com</text>
</g>
<!-- Player -->
<g id="node2" class="node"><title>Player</title>
<path fill="none" stroke="black" d="M244.5,-332.5C244.5,-332.5 351.5,-332.5 351.5,-332.5 357.5,-332.5 363.5,-338.5 363.5,-344.5 363.5,-344.5 363.5,-441.5 363.5,-441.5 363.5,-447.5 357.5,-453.5 351.5,-453.5 351.5,-453.5 244.5,-453.5 244.5,-453.5 238.5,-453.5 232.5,-447.5 232.5,-441.5 232.5,-441.5 232.5,-344.5 232.5,-344.5 232.5,-338.5 238.5,-332.5 244.5,-332.5"/>
<text text-anchor="middle" x="298" y="-438.3" font-family="Times,serif" font-size="14.00">Player</text>
<polyline fill="none" stroke="black" points="232.5,-430.5 363.5,-430.5 "/>
<text text-anchor="start" x="240.5" y="-415.3" font-family="Times,serif" font-size="14.00">id :INTEGER</text>
<text text-anchor="start" x="240.5" y="-400.3" font-family="Times,serif" font-size="14.00">firstname :varchar</text>
<text text-anchor="start" x="240.5" y="-385.3" font-family="Times,serif" font-size="14.00">lastname :varchar</text>
<text text-anchor="start" x="240.5" y="-370.3" font-family="Times,serif" font-size="14.00">email :varchar</text>
<text text-anchor="start" x="240.5" y="-355.3" font-family="Times,serif" font-size="14.00">created_at :datetime</text>
<text text-anchor="start" x="240.5" y="-340.3" font-family="Times,serif" font-size="14.00">updated_at :datetime</text>
</g>
<!-- Game -->
<g id="node3" class="node"><title>Game</title>
<path fill="none" stroke="black" d="M281.5,-0.5C281.5,-0.5 424.5,-0.5 424.5,-0.5 430.5,-0.5 436.5,-6.5 436.5,-12.5 436.5,-12.5 436.5,-109.5 436.5,-109.5 436.5,-115.5 430.5,-121.5 424.5,-121.5 424.5,-121.5 281.5,-121.5 281.5,-121.5 275.5,-121.5 269.5,-115.5 269.5,-109.5 269.5,-109.5 269.5,-12.5 269.5,-12.5 269.5,-6.5 275.5,-0.5 281.5,-0.5"/>
<text text-anchor="middle" x="353" y="-106.3" font-family="Times,serif" font-size="14.00">Game</text>
<polyline fill="none" stroke="black" points="269.5,-98.5 436.5,-98.5 "/>
<text text-anchor="start" x="277.5" y="-83.3" font-family="Times,serif" font-size="14.00">id :INTEGER</text>
<text text-anchor="start" x="277.5" y="-68.3" font-family="Times,serif" font-size="14.00">date_of_game :date</text>
<text text-anchor="start" x="277.5" y="-53.3" font-family="Times,serif" font-size="14.00">league_id :integer</text>
<text text-anchor="start" x="277.5" y="-38.3" font-family="Times,serif" font-size="14.00">number_of_players :integer</text>
<text text-anchor="start" x="277.5" y="-23.3" font-family="Times,serif" font-size="14.00">created_at :datetime</text>
<text text-anchor="start" x="277.5" y="-8.3" font-family="Times,serif" font-size="14.00">updated_at :datetime</text>
</g>
<!-- Player&#45;&gt;Game -->
<g id="edge2" class="edge"><title>Player&#45;&gt;Game</title>
<path fill="none" stroke="#564a2c" d="M298.623,-322.115C300.269,-275.204 304.866,-212.29 317,-158 318.967,-149.198 321.566,-140.119 324.47,-131.217"/>
<polygon fill="#564a2c" stroke="#564a2c" points="298.621,-322.178 293.808,-332.032 298.463,-327.176 298.306,-332.173 298.306,-332.173 298.306,-332.173 298.463,-327.176 302.804,-332.315 298.621,-322.178 298.621,-322.178"/>
<polygon fill="#564a2c" stroke="#564a2c" points="324.504,-131.117 331.985,-123.099 326.114,-126.384 327.725,-121.65 327.725,-121.65 327.725,-121.65 326.114,-126.384 323.464,-120.201 324.504,-131.117 324.504,-131.117"/>
</g>
<!-- League -->
<g id="node5" class="node"><title>League</title>
<path fill="none" stroke="black" d="M337.5,-159C337.5,-159 480.5,-159 480.5,-159 486.5,-159 492.5,-165 492.5,-171 492.5,-171 492.5,-283 492.5,-283 492.5,-289 486.5,-295 480.5,-295 480.5,-295 337.5,-295 337.5,-295 331.5,-295 325.5,-289 325.5,-283 325.5,-283 325.5,-171 325.5,-171 325.5,-165 331.5,-159 337.5,-159"/>
<text text-anchor="middle" x="409" y="-279.8" font-family="Times,serif" font-size="14.00">League</text>
<polyline fill="none" stroke="black" points="325.5,-272 492.5,-272 "/>
<text text-anchor="start" x="333.5" y="-256.8" font-family="Times,serif" font-size="14.00">id :INTEGER</text>
<text text-anchor="start" x="333.5" y="-241.8" font-family="Times,serif" font-size="14.00">game_type_id :integer</text>
<text text-anchor="start" x="333.5" y="-226.8" font-family="Times,serif" font-size="14.00">name :varchar</text>
<text text-anchor="start" x="333.5" y="-211.8" font-family="Times,serif" font-size="14.00">season :varchar</text>
<text text-anchor="start" x="333.5" y="-196.8" font-family="Times,serif" font-size="14.00">number_of_players :integer</text>
<text text-anchor="start" x="333.5" y="-181.8" font-family="Times,serif" font-size="14.00">created_at :datetime</text>
<text text-anchor="start" x="333.5" y="-166.8" font-family="Times,serif" font-size="14.00">updated_at :datetime</text>
</g>
<!-- Player&#45;&gt;League -->
<g id="edge1" class="edge"><title>Player&#45;&gt;League</title>
<path fill="none" stroke="#157e59" d="M344.013,-324.017C348.558,-317.302 353.19,-310.459 357.782,-303.673"/>
<polygon fill="#157e59" stroke="#157e59" points="343.993,-324.047 334.661,-329.806 341.19,-328.188 338.388,-332.328 338.388,-332.328 338.388,-332.328 341.19,-328.188 342.114,-334.851 343.993,-324.047 343.993,-324.047"/>
<polygon fill="#157e59" stroke="#157e59" points="357.964,-303.404 367.296,-297.645 360.767,-299.264 363.569,-295.123 363.569,-295.123 363.569,-295.123 360.767,-299.264 359.843,-292.6 357.964,-303.404 357.964,-303.404"/>
</g>
<!-- ApplicationRecord -->
<g id="node4" class="node"><title>ApplicationRecord</title>
<ellipse fill="none" stroke="black" cx="608" cy="-393" rx="77.0154" ry="18"/>
<text text-anchor="middle" x="608" y="-389.3" font-family="Times,serif" font-size="14.00">ApplicationRecord</text>
</g>
<!-- League&#45;&gt;Game -->
<g id="edge3" class="edge"><title>League&#45;&gt;Game</title>
<path fill="none" stroke="#cc6c7e" d="M383.387,-150.99C381.135,-144.396 378.863,-137.741 376.628,-131.198"/>
<ellipse fill="none" stroke="#cc6c7e" cx="384.768" cy="-155.036" rx="4.00001" ry="4.00001"/>
<polygon fill="#cc6c7e" stroke="#cc6c7e" points="376.621,-131.174 377.648,-120.257 375.005,-126.442 373.389,-121.711 373.389,-121.711 373.389,-121.711 375.005,-126.442 369.13,-123.165 376.621,-131.174 376.621,-131.174"/>
</g>
<!-- GameType -->
<g id="node6" class="node"><title>GameType</title>
<path fill="none" stroke="black" d="M393.5,-347.5C393.5,-347.5 500.5,-347.5 500.5,-347.5 506.5,-347.5 512.5,-353.5 512.5,-359.5 512.5,-359.5 512.5,-426.5 512.5,-426.5 512.5,-432.5 506.5,-438.5 500.5,-438.5 500.5,-438.5 393.5,-438.5 393.5,-438.5 387.5,-438.5 381.5,-432.5 381.5,-426.5 381.5,-426.5 381.5,-359.5 381.5,-359.5 381.5,-353.5 387.5,-347.5 393.5,-347.5"/>
<text text-anchor="middle" x="447" y="-423.3" font-family="Times,serif" font-size="14.00">GameType</text>
<polyline fill="none" stroke="black" points="381.5,-415.5 512.5,-415.5 "/>
<text text-anchor="start" x="389.5" y="-400.3" font-family="Times,serif" font-size="14.00">id :INTEGER</text>
<text text-anchor="start" x="389.5" y="-385.3" font-family="Times,serif" font-size="14.00">name :varchar</text>
<text text-anchor="start" x="389.5" y="-370.3" font-family="Times,serif" font-size="14.00">created_at :datetime</text>
<text text-anchor="start" x="389.5" y="-355.3" font-family="Times,serif" font-size="14.00">updated_at :datetime</text>
</g>
<!-- GameType&#45;&gt;League -->
<g id="edge4" class="edge"><title>GameType&#45;&gt;League</title>
<path fill="none" stroke="#1aec92" d="M434.747,-339.118C432.241,-328.303 429.555,-316.712 426.898,-305.245"/>
<ellipse fill="none" stroke="#1aec92" cx="435.713" cy="-343.29" rx="4.00001" ry="4.00001"/>
<polygon fill="#1aec92" stroke="#1aec92" points="426.833,-304.965 428.96,-294.207 425.705,-300.094 424.576,-295.223 424.576,-295.223 424.576,-295.223 425.705,-300.094 420.192,-296.238 426.833,-304.965 426.833,-304.965"/>
</g>
</g>
</svg>
