<?xml version="1.0" encoding="UTF-8" standalone="no"?>
<!DOCTYPE svg PUBLIC "-//W3C//DTD SVG 1.1//EN"
 "http://www.w3.org/Graphics/SVG/1.1/DTD/svg11.dtd">
<!-- Generated by graphviz version 2.36.0 (20140111.2315)
 -->
<!-- Title: models_diagram Pages: 1 -->
<svg width="596pt" height="230pt"
 viewBox="0.00 0.00 596.00 230.00" xmlns="http://www.w3.org/2000/svg" xmlns:xlink="http://www.w3.org/1999/xlink">
<g id="graph0" class="graph" transform="scale(1 1) rotate(0) translate(4 226)">
<title>models_diagram</title>
<polygon fill="none" stroke="none" points="-4,4 -4,-226 592,-226 592,4 -4,4"/>
<!-- _diagram_info -->
<g id="node1" class="node"><title>_diagram_info</title>
<text text-anchor="start" x="8" y="-207.6" font-family="Times,serif" font-size="13.00">Models diagram</text>
<text text-anchor="start" x="8" y="-193.6" font-family="Times,serif" font-size="13.00">Date: Sep 12 2016 &#45; 20:31</text>
<text text-anchor="start" x="8" y="-179.6" font-family="Times,serif" font-size="13.00">Migration version: 20160819202605</text>
<text text-anchor="start" x="8" y="-165.6" font-family="Times,serif" font-size="13.00">Generated by RailRoady 1.5.1</text>
<text text-anchor="start" x="8" y="-151.6" font-family="Times,serif" font-size="13.00">http://railroady.prestonlee.com</text>
</g>
<!-- Player -->
<g id="node2" class="node"><title>Player</title>
<ellipse fill="none" stroke="black" cx="265" cy="-183" rx="33.2209" ry="18"/>
<text text-anchor="middle" x="265" y="-179.3" font-family="Times,serif" font-size="14.00">Player</text>
</g>
<!-- Game -->
<g id="node3" class="node"><title>Game</title>
<ellipse fill="none" stroke="black" cx="297" cy="-18" rx="32.2457" ry="18"/>
<text text-anchor="middle" x="297" y="-14.3" font-family="Times,serif" font-size="14.00">Game</text>
</g>
<!-- Player&#45;&gt;Game -->
<g id="edge2" class="edge"><title>Player&#45;&gt;Game</title>
<path fill="none" stroke="#57df11" d="M269.176,-154.692C272.718,-132.373 278.147,-100.042 284,-72 285.77,-63.5228 287.933,-54.3423 289.983,-46.0416"/>
<polygon fill="#57df11" stroke="#57df11" points="269.143,-154.902 263.149,-164.085 268.369,-159.842 267.594,-164.782 267.594,-164.782 267.594,-164.782 268.369,-159.842 272.04,-165.479 269.143,-154.902 269.143,-154.902"/>
<polygon fill="#57df11" stroke="#57df11" points="290.04,-45.8144 296.845,-37.2155 291.261,-40.9657 292.481,-36.1169 292.481,-36.1169 292.481,-36.1169 291.261,-40.9657 288.117,-35.0184 290.04,-45.8144 290.04,-45.8144"/>
</g>
<!-- League -->
<g id="node5" class="node"><title>League</title>
<ellipse fill="none" stroke="black" cx="329" cy="-90" rx="36.096" ry="18"/>
<text text-anchor="middle" x="329" y="-86.3" font-family="Times,serif" font-size="14.00">League</text>
</g>
<!-- Player&#45;&gt;League -->
<g id="edge1" class="edge"><title>Player&#45;&gt;League</title>
<path fill="none" stroke="#5faa02" d="M282.316,-157.379C291.441,-144.404 302.6,-128.538 311.719,-115.571"/>
<polygon fill="#5faa02" stroke="#5faa02" points="282.195,-157.551 272.761,-163.142 279.318,-161.641 276.442,-165.731 276.442,-165.731 276.442,-165.731 279.318,-161.641 280.123,-168.32 282.195,-157.551 282.195,-157.551"/>
<polygon fill="#5faa02" stroke="#5faa02" points="311.904,-115.308 321.338,-109.717 314.781,-111.218 317.657,-107.128 317.657,-107.128 317.657,-107.128 314.781,-111.218 313.976,-104.539 311.904,-115.308 311.904,-115.308"/>
</g>
<!-- ApplicationRecord -->
<g id="node4" class="node"><title>ApplicationRecord</title>
<ellipse fill="none" stroke="black" cx="511" cy="-183" rx="77.0154" ry="18"/>
<text text-anchor="middle" x="511" y="-179.3" font-family="Times,serif" font-size="14.00">ApplicationRecord</text>
</g>
<!-- League&#45;&gt;Game -->
<g id="edge3" class="edge"><title>League&#45;&gt;Game</title>
<path fill="none" stroke="#cc386f" d="M317.898,-64.7144C315.035,-58.4507 311.94,-51.6804 309.031,-45.3185"/>
<ellipse fill="none" stroke="#cc386f" cx="319.591" cy="-68.4171" rx="4.00002" ry="4.00002"/>
<polygon fill="#cc386f" stroke="#cc386f" points="308.833,-44.8838 308.768,-33.9181 306.754,-40.3364 304.675,-35.789 304.675,-35.789 304.675,-35.789 306.754,-40.3364 300.582,-37.6599 308.833,-44.8838 308.833,-44.8838"/>
</g>
<!-- GameType -->
<g id="node6" class="node"><title>GameType</title>
<ellipse fill="none" stroke="black" cx="366" cy="-183" rx="50.0684" ry="18"/>
<text text-anchor="middle" x="366" y="-179.3" font-family="Times,serif" font-size="14.00">GameType</text>
</g>
<!-- GameType&#45;&gt;League -->
<g id="edge4" class="edge"><title>GameType&#45;&gt;League</title>
<path fill="none" stroke="#3fbbb6" d="M355.879,-157.107C350.843,-144.721 344.756,-129.752 339.65,-117.193"/>
<ellipse fill="none" stroke="#3fbbb6" cx="357.534" cy="-161.178" rx="4.00001" ry="4.00001"/>
<polygon fill="#3fbbb6" stroke="#3fbbb6" points="339.57,-116.996 339.972,-106.037 337.686,-112.364 335.803,-107.732 335.803,-107.732 335.803,-107.732 337.686,-112.364 331.635,-109.427 339.57,-116.996 339.57,-116.996"/>
</g>
</g>
</svg>
