<?xml version="1.0" encoding="UTF-8" standalone="no"?>
<!DOCTYPE svg PUBLIC "-//W3C//DTD SVG 1.1//EN"
 "http://www.w3.org/Graphics/SVG/1.1/DTD/svg11.dtd">
<!-- Generated by graphviz version 2.36.0 (20140111.2315)
 -->
<!-- Title: models_diagram Pages: 1 -->
<svg width="596pt" height="230pt"
 viewBox="0.00 0.00 596.00 230.00" xmlns="http://www.w3.org/2000/svg" xmlns:xlink="http://www.w3.org/1999/xlink">
<g id="graph0" class="graph" transform="scale(1 1) rotate(0) translate(4 226)">
<title>models_diagram</title>
<polygon fill="none" stroke="none" points="-4,4 -4,-226 592,-226 592,4 -4,4"/>
<!-- _diagram_info -->
<g id="node1" class="node"><title>_diagram_info</title>
<text text-anchor="start" x="8" y="-207.6" font-family="Times,serif" font-size="13.00">Models diagram</text>
<text text-anchor="start" x="8" y="-193.6" font-family="Times,serif" font-size="13.00">Date: Aug 19 2016 &#45; 22:02</text>
<text text-anchor="start" x="8" y="-179.6" font-family="Times,serif" font-size="13.00">Migration version: 20160819204309</text>
<text text-anchor="start" x="8" y="-165.6" font-family="Times,serif" font-size="13.00">Generated by RailRoady 1.5.1</text>
<text text-anchor="start" x="8" y="-151.6" font-family="Times,serif" font-size="13.00">http://railroady.prestonlee.com</text>
</g>
<!-- Player -->
<g id="node2" class="node"><title>Player</title>
<ellipse fill="none" stroke="black" cx="265" cy="-183" rx="33.2209" ry="18"/>
<text text-anchor="middle" x="265" y="-179.3" font-family="Times,serif" font-size="14.00">Player</text>
</g>
<!-- Play -->
<g id="node3" class="node"><title>Play</title>
<ellipse fill="none" stroke="black" cx="265" cy="-18" rx="27" ry="18"/>
<text text-anchor="middle" x="265" y="-14.3" font-family="Times,serif" font-size="14.00">Play</text>
</g>
<!-- Player&#45;&gt;Play -->
<g id="edge1" class="edge"><title>Player&#45;&gt;Play</title>
<path fill="none" stroke="#642dad" d="M259.595,-156.882C255.487,-134.584 251.01,-101.118 254,-72 254.877,-63.455 256.531,-54.2552 258.294,-45.9576"/>
<ellipse fill="none" stroke="#642dad" cx="260.376" cy="-160.922" rx="4.00001" ry="4.00001"/>
<polygon fill="#642dad" stroke="#642dad" points="258.329,-45.8005 264.925,-37.0399 259.432,-40.9237 260.536,-36.0469 260.536,-36.0469 260.536,-36.0469 259.432,-40.9237 256.147,-35.054 258.329,-45.8005 258.329,-45.8005"/>
</g>
<!-- Game -->
<g id="node4" class="node"><title>Game</title>
<ellipse fill="none" stroke="black" cx="295" cy="-90" rx="32.2457" ry="18"/>
<text text-anchor="middle" x="295" y="-86.3" font-family="Times,serif" font-size="14.00">Game</text>
</g>
<!-- Player&#45;&gt;Game -->
<g id="edge2" class="edge"><title>Player&#45;&gt;Game</title>
<path fill="none" stroke="#5a1496" d="M273.905,-154.988C277.784,-143.221 282.319,-129.467 286.187,-117.732"/>
<polygon fill="#5a1496" stroke="#5a1496" points="273.774,-155.386 266.369,-163.475 272.208,-160.135 270.643,-164.884 270.643,-164.884 270.643,-164.884 272.208,-160.135 274.917,-166.293 273.774,-155.386 273.774,-155.386"/>
<polygon fill="#5a1496" stroke="#5a1496" points="286.252,-117.537 293.656,-109.449 287.817,-112.788 289.383,-108.04 289.383,-108.04 289.383,-108.04 287.817,-112.788 285.109,-106.631 286.252,-117.537 286.252,-117.537"/>
</g>
<!-- Game&#45;&gt;Play -->
<g id="edge3" class="edge"><title>Game&#45;&gt;Play</title>
<path fill="none" stroke="#559554" d="M284.693,-64.9496C281.894,-58.4184 278.852,-51.3217 276.016,-44.7031"/>
<ellipse fill="none" stroke="#559554" cx="286.315" cy="-68.7344" rx="4.00002" ry="4.00002"/>
<polygon fill="#559554" stroke="#559554" points="275.998,-44.6614 276.195,-33.6973 274.028,-40.0657 272.059,-35.4699 272.059,-35.4699 272.059,-35.4699 274.028,-40.0657 267.922,-37.2426 275.998,-44.6614 275.998,-44.6614"/>
</g>
<!-- ApplicationRecord -->
<g id="node5" class="node"><title>ApplicationRecord</title>
<ellipse fill="none" stroke="black" cx="393" cy="-183" rx="77.0154" ry="18"/>
<text text-anchor="middle" x="393" y="-179.3" font-family="Times,serif" font-size="14.00">ApplicationRecord</text>
</g>
<!-- League -->
<g id="node6" class="node"><title>League</title>
<ellipse fill="none" stroke="black" cx="538" cy="-90" rx="36.096" ry="18"/>
<text text-anchor="middle" x="538" y="-86.3" font-family="Times,serif" font-size="14.00">League</text>
</g>
<!-- GameType -->
<g id="node7" class="node"><title>GameType</title>
<ellipse fill="none" stroke="black" cx="538" cy="-183" rx="50.0684" ry="18"/>
<text text-anchor="middle" x="538" y="-179.3" font-family="Times,serif" font-size="14.00">GameType</text>
</g>
<!-- GameType&#45;&gt;League -->
<g id="edge4" class="edge"><title>GameType&#45;&gt;League</title>
<path fill="none" stroke="#2042f0" d="M538,-156.729C538,-144.725 538,-130.362 538,-118.129"/>
<ellipse fill="none" stroke="#2042f0" cx="538" cy="-160.884" rx="4" ry="4"/>
<polygon fill="#2042f0" stroke="#2042f0" points="538,-118.04 542.5,-108.04 538,-113.04 538,-108.04 538,-108.04 538,-108.04 538,-113.04 533.5,-108.04 538,-118.04 538,-118.04"/>
</g>
</g>
</svg>
